<?xml version="1.0" encoding="UTF-8"?>
<svg version="1.1" xmlns="http://www.w3.org/2000/svg" width="300" height="300">
<path d="M0 0 C99 0 198 0 300 0 C300 99 300 198 300 300 C201 300 102 300 0 300 C0 201 0 102 0 0 Z " fill="#EDEDED" transform="translate(0,0)"/>
<path d="M0 0 C11.67489731 10.95485959 16.51165455 22.94501345 17.1640625 38.796875 C17.63060858 60.07957059 14.81146293 79.56779297 7.7734375 99.6640625 C7.40605469 100.7571875 7.03867188 101.8503125 6.66015625 102.9765625 C3.66207479 111.38355382 -0.77007946 123.20757946 -7.2265625 129.6640625 C-8.02133986 136.34800983 -7.38105848 142.21203052 -3.2265625 147.6640625 C0.75774479 151.45134361 4.87218102 153.08174702 9.9609375 154.8515625 C10.7753833 155.14417969 11.5898291 155.43679687 12.42895508 155.73828125 C17.35087207 157.49561842 22.29494689 159.18659935 27.2421875 160.87109375 C79.68808204 178.73959066 79.68808204 178.73959066 92.7734375 201.6640625 C93.16402344 202.30988281 93.55460937 202.95570313 93.95703125 203.62109375 C101.74169639 217.52444511 101.7734375 234.2999996 101.7734375 249.6640625 C9.0434375 249.6640625 -83.6865625 249.6640625 -179.2265625 249.6640625 C-179.2265625 228.67286734 -176.34161213 210.22444028 -164.2265625 192.6640625 C-163.824375 192.05433594 -163.4221875 191.44460937 -163.0078125 190.81640625 C-150.91559899 174.63201073 -125.18206059 167.31225138 -106.88476562 161.515625 C-87.22570966 156.62703049 -87.22570966 156.62703049 -71.6640625 145.4140625 C-70.83650811 143.59468829 -70.83650811 143.59468829 -70.2265625 141.6640625 C-69.97390625 141.01824219 -69.72125 140.37242187 -69.4609375 139.70703125 C-68.3994412 135.62027049 -68.8596909 133.33437463 -70.8984375 129.609375 C-72.03782063 127.86398633 -73.21669696 126.15064661 -74.40429688 124.43774414 C-92.42317167 98.22000537 -99.92525552 60.09553168 -94.9140625 28.984375 C-92.45026032 17.08533037 -86.83295178 6.33813209 -77.2265625 -1.3359375 C-55.96041034 -15.2407293 -20.30082419 -16.70320978 0 0 Z " fill="#859181" transform="translate(188.2265625,50.3359375)"/>
</svg>
